<?xml version="1.0" encoding="UTF-8" standalone="no"?>
<!DOCTYPE svg PUBLIC "-//W3C//DTD SVG 1.1//EN" "http://www.w3.org/Graphics/SVG/1.1/DTD/svg11.dtd">
<svg width="100%" height="100%" viewBox="0 0 2481 3508" version="1.1" xmlns="http://www.w3.org/2000/svg" xmlns:xlink="http://www.w3.org/1999/xlink" xml:space="preserve" xmlns:serif="http://www.serif.com/" style="fill-rule:evenodd;clip-rule:evenodd;stroke-linejoin:round;stroke-miterlimit:2;">
    <g transform="matrix(4.16667,0,0,4.16667,0,2396.62)">
        <rect x="57.758" y="25.857" width="127.667" height="215.018"/>
    </g>
    <g transform="matrix(4.16667,0,0,4.16667,0,2396.62)">
        <rect x="232.46" y="25.857" width="127.667" height="215.018"/>
    </g>
    <g transform="matrix(4.16667,0,0,4.16667,0,2396.62)">
        <rect x="409.851" y="25.857" width="127.667" height="215.018"/>
    </g>
    <g transform="matrix(4.16667,0,0,4.16667,0,1014.55)">
        <rect x="57.758" y="236.603" width="479.76" height="125.221"/>
    </g>
    <g transform="matrix(4.16667,0,0,4.16667,0,132.608)">
        <rect x="57.758" y="347.48" width="215.018" height="115.134"/>
    </g>
    <g transform="matrix(4.16667,0,0,4.16667,0,132.608)">
        <rect x="322.499" y="347.48" width="215.018" height="115.134"/>
    </g>
    <g transform="matrix(0,-1,1,0,182.895,1149.39)">
        <g transform="matrix(0.933888,0,0,1,-23.9962,0)">
            <g transform="matrix(168.27,0,0,168.27,613.024,178.454)">
            </g>
            <text x="-362.964px" y="178.454px" style="font-family:'Helvetica';font-size:168.27px;fill:rgb(181,0,0);">S<tspan x="-263.139px -163.314px -44.839px 64.271px 164.095px 282.571px 391.68px 491.505px " y="178.454px 178.454px 178.454px 178.454px 178.454px 178.454px 178.454px 178.454px ">PONSORED</tspan></text>
        </g>
    </g>
    <g transform="matrix(1,0,0,1,386.307,474.811)">
        <g transform="matrix(1.04184,0,0,1,-5.10464,0)">
            <text x="121.992px" y="597.789px" style="font-family:'Helvetica';font-size:624.366px;fill:rgb(181,0,0);">E<tspan x="554.083px 708.441px 897.554px 1260.44px 1484px " y="597.789px 597.789px 597.789px 597.789px 597.789px ">ltern</tspan></text>
        </g>
        <g transform="matrix(1.04184,0,0,1,-6.86173,0)">
            <g transform="matrix(597.068,0,0,597.068,1829.25,1026.28)">
            </g>
            <text x="163.983px" y="1026.28px" style="font-family:'Helvetica';font-size:597.068px;fill:rgb(181,0,0);">v<tspan x="470.333px 810.209px 1016.85px 1356.73px 1497.19px " y="1026.28px 1026.28px 1026.28px 1026.28px 1026.28px ">erein</tspan></text>
        </g>
    </g>
    <g transform="matrix(0,-1,1,0,316.029,1154.67)">
        <g transform="matrix(0.933888,0,0,1,-24.1067,0)">
            <g transform="matrix(168.917,0,0,168.917,-142.692,220.96)">
            </g>
            <text x="-364.634px" y="220.96px" style="font-family:'Helvetica';font-size:168.917px;fill:rgb(181,0,0);">B<tspan x="-255.358px " y="220.96px ">Y</tspan></text>
        </g>
    </g>
</svg>
